<svg width="39" height="39" viewBox="0 0 39 39" fill="none" xmlns="http://www.w3.org/2000/svg">
<path d="M31.1667 13.202C31.1667 10.231 29.9376 7.38175 27.7495 5.28098C25.5616 3.1802 22.5942 2 19.5 2C16.4058 2 13.4383 3.1802 11.2504 5.28098C9.06249 7.38175 7.83333 10.231 7.83333 13.202C7.83333 26.271 2 30.0049 2 30.0049H37C37 30.0049 31.1667 26.271 31.1667 13.202Z" stroke="#84CCD4" stroke-width="3" stroke-linecap="round" stroke-linejoin="round"/>
<path d="M22.864 35.2559C22.5222 35.7864 22.0316 36.2268 21.4411 36.5327C20.8507 36.8388 20.1815 37 19.5001 37C18.8188 37 18.1495 36.8388 17.5592 36.5327C16.9688 36.2268 16.4781 35.7864 16.1362 35.2559" stroke="#84CCD4" stroke-width="3" stroke-linecap="round" stroke-linejoin="round"/>
</svg>
