<svg width="39" height="39" viewBox="0 0 39 39" fill="none" xmlns="http://www.w3.org/2000/svg">
<path d="M16.9199 3.13997C18.3042 1.62001 20.6957 1.62001 22.08 3.13997L23.8601 5.09457C24.5596 5.86277 25.5651 6.27926 26.6031 6.23075L29.2439 6.10734C31.2974 6.01136 32.9887 7.70249 32.8927 9.75609L32.7692 12.3969C32.7207 13.4348 33.1371 14.4403 33.9054 15.1399L35.8599 16.9199C37.38 18.3042 37.38 20.6957 35.8599 22.08L33.9054 23.8601C33.1371 24.5596 32.7207 25.5651 32.7692 26.6031L32.8927 29.2439C32.9887 31.2974 31.2974 32.9887 29.2439 32.8927L26.6031 32.7692C25.5651 32.7207 24.5596 33.1371 23.8601 33.9054L22.08 35.8599C20.6957 37.38 18.3042 37.38 16.9199 35.8599L15.1399 33.9054C14.4403 33.1371 13.4348 32.7207 12.3969 32.7692L9.75607 32.8927C7.70249 32.9887 6.01136 31.2974 6.10734 29.2439L6.23075 26.6031C6.27926 25.5651 5.86277 24.5596 5.09457 23.8601L3.13997 22.08C1.62001 20.6957 1.62001 18.3042 3.13997 16.9199L5.09457 15.1399C5.86277 14.4403 6.27926 13.4348 6.23075 12.3969L6.10734 9.75607C6.01136 7.70249 7.70249 6.01136 9.75609 6.10734L12.3969 6.23075C13.4348 6.27926 14.4403 5.86277 15.1399 5.09457L16.9199 3.13997Z" stroke="#84CCD4" stroke-width="3"/>
<path d="M14.2654 19.4999L17.755 22.9895L24.7343 16.0103" stroke="#84CCD4" stroke-width="3" stroke-linecap="round" stroke-linejoin="round"/>
</svg>
