<svg width="35" height="35" viewBox="0 0 35 35" fill="none" xmlns="http://www.w3.org/2000/svg">
<path d="M27.2675 15.4651C26.6001 15.4651 26.0466 14.9116 26.0466 14.2442V10.9884C26.0466 5.86047 24.5978 2.44186 17.5001 2.44186C10.4024 2.44186 8.95358 5.86047 8.95358 10.9884V14.2442C8.95358 14.9116 8.40009 15.4651 7.73265 15.4651C7.06521 15.4651 6.51172 14.9116 6.51172 14.2442V10.9884C6.51172 6.26744 7.65125 0 17.5001 0C27.3489 0 28.4885 6.26744 28.4885 10.9884V14.2442C28.4885 14.9116 27.935 15.4651 27.2675 15.4651Z" fill="#84CCD4"/>
<path d="M17.4999 29.3021C14.586 29.3021 12.2092 26.9254 12.2092 24.0114C12.2092 21.0974 14.586 18.7207 17.4999 18.7207C20.4139 18.7207 22.7906 21.0974 22.7906 24.0114C22.7906 26.9254 20.4139 29.3021 17.4999 29.3021ZM17.4999 21.1626C15.9371 21.1626 14.6511 22.4486 14.6511 24.0114C14.6511 25.5742 15.9371 26.8602 17.4999 26.8602C19.0627 26.8602 20.3488 25.5742 20.3488 24.0114C20.3488 22.4486 19.0627 21.1626 17.4999 21.1626Z" fill="#84CCD4"/>
<path d="M25.6395 35.0002H9.36047C2.1814 35.0002 0 32.8188 0 25.6397V22.3839C0 15.2048 2.1814 13.0234 9.36047 13.0234H25.6395C32.8186 13.0234 35 15.2048 35 22.3839V25.6397C35 32.8188 32.8186 35.0002 25.6395 35.0002ZM9.36047 15.4653C3.53256 15.4653 2.44186 16.5723 2.44186 22.3839V25.6397C2.44186 31.4513 3.53256 32.5583 9.36047 32.5583H25.6395C31.4674 32.5583 32.5581 31.4513 32.5581 25.6397V22.3839C32.5581 16.5723 31.4674 15.4653 25.6395 15.4653H9.36047Z" fill="#84CCD4"/>
</svg>
