<svg width="8" height="17" viewBox="0 0 8 17" fill="none" xmlns="http://www.w3.org/2000/svg">
<path d="M0.642348 14.5489C0.23303 14.9546 0.230083 15.6153 0.635764 16.0246C1.04145 16.4339 1.70213 16.4368 2.11145 16.0312L4.60847 13.5563C5.54895 12.6242 6.31761 11.8624 6.86273 11.1836C7.42959 10.4778 7.83993 9.76136 7.94955 8.90137C7.99761 8.52429 7.99761 8.1427 7.94955 7.76562C7.83993 6.90563 7.42959 6.1892 6.86273 5.48335C6.31762 4.80458 5.54897 4.04278 4.60849 3.11069L2.11145 0.635839C1.70213 0.230158 1.04145 0.233105 0.635765 0.642423C0.230083 1.05174 0.233031 1.71243 0.642348 2.11811L3.09517 4.54915C4.09064 5.53577 4.7735 6.21479 5.23555 6.79013C5.68438 7.34901 5.83836 7.70799 5.87934 8.02949C5.90507 8.23136 5.90507 8.43563 5.87934 8.6375C5.83836 8.959 5.68438 9.31798 5.23555 9.87686C4.7735 10.4522 4.09064 11.1312 3.09518 12.1178L0.642348 14.5489Z" fill="#141414"/>
</svg>
