<svg width="54" height="54" viewBox="0 0 54 54" fill="none" xmlns="http://www.w3.org/2000/svg">
<path d="M18.6667 52H13.1111C6.97461 52 2 46.8308 2 40.4545V22.2922C2 18.2549 4.02947 14.5109 7.35219 12.4184L21.2411 3.67182C24.7808 1.44273 29.2192 1.44273 32.7589 3.67182L46.6478 12.4184C49.9706 14.5109 52 18.2549 52 22.2922V40.4545C52 46.8308 47.0253 52 40.8889 52H35.3333M18.6667 52V40.4545C18.6667 35.672 22.3975 31.7953 27 31.7953C31.6025 31.7953 35.3333 35.672 35.3333 40.4545V52M18.6667 52H35.3333" stroke="black" stroke-width="4" stroke-linecap="round" stroke-linejoin="round"/>
</svg>
