<svg width="44" height="45" viewBox="0 0 44 45" fill="none" xmlns="http://www.w3.org/2000/svg">
<path d="M17.0817 3.82031C16.3664 3.82031 15.6804 4.11004 15.1746 4.62577C14.6688 5.14149 14.3846 5.84097 14.3846 6.57031V8.40365C14.3846 9.13299 14.6688 9.83247 15.1746 10.3482C15.6804 10.8639 16.3664 11.1536 17.0817 11.1536H26.0721C26.7874 11.1536 27.4735 10.8639 27.9793 10.3482C28.4851 9.83247 28.7692 9.13299 28.7692 8.40365V6.57031C28.7692 5.84097 28.4851 5.14149 27.9793 4.62577C27.4735 4.11004 26.7874 3.82031 26.0721 3.82031H17.0817Z" fill="white"/>
<path fill-rule="evenodd" clip-rule="evenodd" d="M11.6875 7.55469C9.42551 7.68302 7.99784 8.04969 6.97474 9.09469C5.39423 10.7062 5.39423 13.2985 5.39423 18.4832V29.4832C5.39423 34.6697 5.39423 37.262 6.97474 38.8735C8.55345 40.4832 11.0977 40.4832 16.1827 40.4832H26.9712C32.0561 40.4832 34.6004 40.4832 36.1791 38.8735C37.7596 37.2602 37.7596 34.6697 37.7596 29.4832V18.4832C37.7596 13.2985 37.7596 10.7062 36.1791 9.09469C35.156 8.04969 33.7283 7.68302 31.4663 7.55469V8.40352C31.4663 9.86221 30.898 11.2612 29.8864 12.2926C28.8748 13.3241 27.5028 13.9035 26.0721 13.9035H17.0817C15.6511 13.9035 14.279 13.3241 13.2674 12.2926C12.2558 11.2612 11.6875 9.86221 11.6875 8.40352V7.55469ZM12.5865 18.0285C12.2289 18.0285 11.8859 18.1734 11.633 18.4312C11.3801 18.6891 11.238 19.0388 11.238 19.4035C11.238 19.7682 11.3801 20.1179 11.633 20.3758C11.8859 20.6337 12.2289 20.7785 12.5865 20.7785H13.4856C13.8432 20.7785 14.1862 20.6337 14.4391 20.3758C14.692 20.1179 14.8341 19.7682 14.8341 19.4035C14.8341 19.0388 14.692 18.6891 14.4391 18.4312C14.1862 18.1734 13.8432 18.0285 13.4856 18.0285H12.5865ZM18.8798 18.0285C18.5221 18.0285 18.1791 18.1734 17.9262 18.4312C17.6733 18.6891 17.5312 19.0388 17.5312 19.4035C17.5312 19.7682 17.6733 20.1179 17.9262 20.3758C18.1791 20.6337 18.5221 20.7785 18.8798 20.7785H30.5673C30.925 20.7785 31.268 20.6337 31.5209 20.3758C31.7738 20.1179 31.9159 19.7682 31.9159 19.4035C31.9159 19.0388 31.7738 18.6891 31.5209 18.4312C31.268 18.1734 30.925 18.0285 30.5673 18.0285H18.8798ZM12.5865 24.4452C12.2289 24.4452 11.8859 24.5901 11.633 24.8479C11.3801 25.1058 11.238 25.4555 11.238 25.8202C11.238 26.1849 11.3801 26.5346 11.633 26.7925C11.8859 27.0503 12.2289 27.1952 12.5865 27.1952H13.4856C13.8432 27.1952 14.1862 27.0503 14.4391 26.7925C14.692 26.5346 14.8341 26.1849 14.8341 25.8202C14.8341 25.4555 14.692 25.1058 14.4391 24.8479C14.1862 24.5901 13.8432 24.4452 13.4856 24.4452H12.5865ZM18.8798 24.4452C18.5221 24.4452 18.1791 24.5901 17.9262 24.8479C17.6733 25.1058 17.5312 25.4555 17.5312 25.8202C17.5312 26.1849 17.6733 26.5346 17.9262 26.7925C18.1791 27.0503 18.5221 27.1952 18.8798 27.1952H30.5673C30.925 27.1952 31.268 27.0503 31.5209 26.7925C31.7738 26.5346 31.9159 26.1849 31.9159 25.8202C31.9159 25.4555 31.7738 25.1058 31.5209 24.8479C31.268 24.5901 30.925 24.4452 30.5673 24.4452H18.8798ZM12.5865 30.8619C12.2289 30.8619 11.8859 31.0067 11.633 31.2646C11.3801 31.5224 11.238 31.8722 11.238 32.2369C11.238 32.6015 11.3801 32.9513 11.633 33.2091C11.8859 33.467 12.2289 33.6119 12.5865 33.6119H13.4856C13.8432 33.6119 14.1862 33.467 14.4391 33.2091C14.692 32.9513 14.8341 32.6015 14.8341 32.2369C14.8341 31.8722 14.692 31.5224 14.4391 31.2646C14.1862 31.0067 13.8432 30.8619 13.4856 30.8619H12.5865ZM18.8798 30.8619C18.5221 30.8619 18.1791 31.0067 17.9262 31.2646C17.6733 31.5224 17.5312 31.8722 17.5312 32.2369C17.5312 32.6015 17.6733 32.9513 17.9262 33.2091C18.1791 33.467 18.5221 33.6119 18.8798 33.6119H30.5673C30.925 33.6119 31.268 33.467 31.5209 33.2091C31.7738 32.9513 31.9159 32.6015 31.9159 32.2369C31.9159 31.8722 31.7738 31.5224 31.5209 31.2646C31.268 31.0067 30.925 30.8619 30.5673 30.8619H18.8798Z" fill="white"/>
</svg>
