<svg width="45" height="45" viewBox="0 0 45 45" fill="none" xmlns="http://www.w3.org/2000/svg">
<path d="M22.8461 4.35889C12.7372 4.35889 4.51282 10.9387 4.51282 19.0256C4.51282 24.3569 7.99248 29.1364 13.6795 31.7379V41.0256L23.4695 33.6831C33.2906 33.4209 41.1795 26.9456 41.1795 19.0256C41.1795 10.9387 32.9551 4.35889 22.8461 4.35889ZM22.8461 30.0256H22.2356L17.3462 33.6922V29.2611L16.171 28.8082C11.2412 26.9107 8.17948 23.1616 8.17948 19.0256C8.17948 12.9591 14.7593 8.02555 22.8461 8.02555C30.933 8.02555 37.5128 12.9591 37.5128 19.0256C37.5128 25.0921 30.933 30.0256 22.8461 30.0256Z" fill="white"/>
<path d="M21.0128 11.6924H24.6795V20.859H21.0128V11.6924ZM21.0128 22.6924H24.6795V26.359H21.0128V22.6924Z" fill="white"/>
</svg>
