<svg width="32" height="44" viewBox="0 0 32 44" fill="none" xmlns="http://www.w3.org/2000/svg">
<path d="M16 26.1546C17.1 26.1546 18.042 25.7274 18.826 24.8731C19.61 24.0187 20.0013 22.9928 20 21.7955C20 20.5968 19.608 19.5702 18.824 18.7158C18.04 17.8614 17.0987 17.435 16 17.4364C14.9 17.4364 13.958 17.8636 13.174 18.718C12.39 19.5724 11.9987 20.5982 12 21.7955C12 22.9943 12.392 24.0209 13.176 24.8752C13.96 25.7296 14.9013 26.1561 16 26.1546ZM8 34.8728H24V33.6196C24 32.7478 23.7833 31.9486 23.35 31.2221C22.9167 30.4956 22.3167 29.9507 21.55 29.5874C20.6833 29.1878 19.7913 28.8791 18.874 28.6611C17.9567 28.4432 16.9987 28.3342 16 28.3342C15 28.3342 14.0413 28.4432 13.124 28.6611C12.2067 28.8791 11.3153 29.1878 10.45 29.5874C9.68334 29.9507 9.08334 30.4956 8.65 31.2221C8.21667 31.9486 8 32.7478 8 33.6196V34.8728ZM28 43.5911H4C2.9 43.5911 1.958 43.1639 1.174 42.3095C0.390003 41.4551 -0.00132994 40.4293 3.39559e-06 39.232V4.35911C3.39559e-06 3.16036 0.392003 2.13379 1.176 1.2794C1.96 0.425016 2.90134 -0.00144933 4 3.70043e-06H18.35C18.8833 3.70043e-06 19.392 0.108982 19.876 0.326937C20.36 0.544892 20.7847 0.853662 21.15 1.25325L30.85 11.8241C31.2167 12.2237 31.5 12.6872 31.7 13.2146C31.9 13.7421 32 14.2957 32 14.8755V39.232C32 40.4307 31.608 41.4573 30.824 42.3117C30.04 43.166 29.0987 43.5925 28 43.5911ZM28 39.232V14.9299L18.3 4.35911H4V39.232H28Z" fill="white"/>
</svg>
