<svg width="34" height="34" viewBox="0 0 34 34" fill="none" xmlns="http://www.w3.org/2000/svg">
<path d="M22.1964 17C22.1964 19.8699 19.8699 22.1964 17 22.1964C14.1301 22.1964 11.8036 19.8699 11.8036 17C11.8036 14.1301 14.1301 11.8036 17 11.8036C19.8699 11.8036 22.1964 14.1301 22.1964 17Z" stroke="white" stroke-width="3" stroke-linejoin="round"/>
<path d="M14.3506 3.69632C15.3928 1.43456 18.6072 1.43456 19.6494 3.69632L20.0272 4.51629C20.6645 5.89926 22.2582 6.55943 23.6868 6.03213L24.5337 5.71949C26.87 4.85711 29.1429 7.13003 28.2805 9.46627L27.9679 10.3132C27.4406 11.7418 28.1007 13.3355 29.4837 13.9728L30.3037 14.3506C32.5654 15.3928 32.5654 18.6072 30.3037 19.6494L29.4837 20.0272C28.1007 20.6645 27.4406 22.2582 27.9679 23.6868L28.2805 24.5337C29.1429 26.87 26.87 29.1429 24.5337 28.2805L23.6868 27.9679C22.2582 27.4406 20.6645 28.1007 20.0272 29.4837L19.6494 30.3037C18.6072 32.5654 15.3928 32.5654 14.3506 30.3037L13.9728 29.4837C13.3355 28.1007 11.7418 27.4406 10.3132 27.9679L9.46628 28.2805C7.13003 29.1429 4.85711 26.87 5.71949 24.5337L6.03213 23.6868C6.55943 22.2582 5.89927 20.6645 4.51629 20.0272L3.69632 19.6494C1.43456 18.6072 1.43456 15.3928 3.69632 14.3506L4.51629 13.9728C5.89926 13.3355 6.55943 11.7418 6.03213 10.3132L5.71949 9.46628C4.85711 7.13004 7.13004 4.85711 9.46628 5.71949L10.3132 6.03213C11.7418 6.55943 13.3355 5.89927 13.9728 4.51629L14.3506 3.69632Z" stroke="white" stroke-width="3" stroke-linejoin="round"/>
</svg>
