<svg width="18" height="16" viewBox="0 0 18 16" fill="none" xmlns="http://www.w3.org/2000/svg">
<circle cx="6" cy="8" r="1" fill="#84CCD4"/>
<circle cx="9.5" cy="8" r="1" fill="#84CCD4"/>
<circle cx="13" cy="8" r="1" fill="#84CCD4"/>
<path d="M1 15L0.0707846 14.6305C-0.0646343 14.971 -0.0029552 15.3583 0.231536 15.6399C0.466028 15.9215 0.835767 16.0523 1.19517 15.9808L1 15ZM5.70588 14.0635L6.17953 13.1828L5.86309 13.0126L5.51071 13.0828L5.70588 14.0635ZM2.6239 10.9167L3.55311 11.2862L3.71749 10.8729L3.52058 10.474L2.6239 10.9167ZM16 8C16 11.2463 13.1466 14 9.47059 14V16C14.1113 16 18 12.4857 18 8H16ZM2.94118 8C2.94118 4.7537 5.79458 2 9.47059 2V0C4.82984 0 0.941176 3.51431 0.941176 8H2.94118ZM9.47059 2C13.1466 2 16 4.7537 16 8H18C18 3.51431 14.1113 0 9.47059 0V2ZM9.47059 14C8.26585 14 7.14263 13.7008 6.17953 13.1828L5.23224 14.9442C6.48408 15.6175 7.93246 16 9.47059 16V14ZM1.19517 15.9808L5.90106 15.0443L5.51071 13.0828L0.804826 14.0192L1.19517 15.9808ZM3.52058 10.474C3.14786 9.71901 2.94118 8.88217 2.94118 8H0.941176C0.941176 9.19966 1.22326 10.3385 1.72721 11.3593L3.52058 10.474ZM1.69468 10.5471L0.0707846 14.6305L1.92922 15.3695L3.55311 11.2862L1.69468 10.5471Z" fill="#84CCD4"/>
</svg>
