<svg width="7" height="22" viewBox="0 0 7 22" fill="none" xmlns="http://www.w3.org/2000/svg">
<path d="M1.20161 18.4924C1.21547 19.6914 2.25366 20.6605 3.5087 20.646C4.76373 20.6315 5.77925 19.6386 5.76539 18.4396C5.75153 17.2407 4.71334 16.2715 3.4583 16.286C2.20327 16.3005 1.18775 17.2934 1.20161 18.4924Z" stroke="#292D32" stroke-width="1.71153"/>
<path d="M1.02534 3.23262C1.0392 4.43161 2.07739 5.40073 3.33243 5.38622C4.58746 5.37172 5.60298 4.37886 5.58912 3.17988C5.57526 1.98089 4.53707 1.01177 3.28204 1.02627C2.027 1.04078 1.01148 2.03364 1.02534 3.23262Z" stroke="#292D32" stroke-width="1.71153"/>
<path d="M1.11348 10.8625C1.12733 12.0615 2.16552 13.0306 3.42056 13.0161C4.6756 13.0016 5.69111 12.0087 5.67725 10.8098C5.6634 9.61077 4.62521 8.64165 3.37017 8.65616C2.11513 8.67066 1.09962 9.66352 1.11348 10.8625Z" stroke="#292D32" stroke-width="1.71153"/>
</svg>
