<svg width="32" height="32" viewBox="0 0 32 32" fill="none" xmlns="http://www.w3.org/2000/svg">
<path fill-rule="evenodd" clip-rule="evenodd" d="M16 10.8096C12.0955 10.8096 8.93023 13.9175 8.93023 17.7513C8.93023 21.5851 12.0955 24.693 16 24.693C19.9045 24.693 23.0698 21.5851 23.0698 17.7513C23.0698 13.9175 19.9045 10.8096 16 10.8096ZM11.1628 17.7513C11.1628 15.1281 13.3285 13.0017 16 13.0017C18.6715 13.0017 20.8372 15.1281 20.8372 17.7513C20.8372 20.3744 18.6715 22.5008 16 22.5008C13.3285 22.5008 11.1628 20.3744 11.1628 17.7513Z" fill="white"/>
<path fill-rule="evenodd" clip-rule="evenodd" d="M21.4328 2.02812C18.3345 -0.676039 13.6655 -0.676039 10.5672 2.02812L10.2461 2.30839C9.36476 3.07762 8.22655 3.50253 7.04734 3.50253C3.1552 3.50253 1.96966e-07 6.60057 1.96966e-07 10.4222V17.8174C-1.19568e-05 20.5013 -2.16216e-05 22.6052 0.184154 24.2743C0.372102 25.9776 0.762529 27.3577 1.63446 28.5361C2.16232 29.2495 2.80125 29.8769 3.52779 30.3952C4.7279 31.2513 6.13349 31.6346 7.86824 31.8192C9.56814 32 11.7108 32 14.4441 32H17.5558C20.2891 32 22.4319 32 24.1318 31.8192C25.8665 31.6346 27.2721 31.2513 28.4722 30.3952C29.1987 29.8769 29.8377 29.2495 30.3655 28.5361C31.2375 27.3577 31.6279 25.9776 31.8158 24.2743C32 22.6052 32 20.5014 32 17.8175V10.4222C32 6.60057 28.8448 3.50253 24.9527 3.50253C23.7735 3.50253 22.6352 3.07762 21.7539 2.30839L21.4328 2.02812ZM12.0505 3.66652C14.3029 1.70064 17.6971 1.70064 19.9495 3.66652L20.2707 3.94679C21.5607 5.07271 23.2267 5.69464 24.9527 5.69464C27.6118 5.69464 29.7674 7.81124 29.7674 10.4222V17.7513C29.7674 20.5156 29.7659 22.5009 29.5963 24.0382C29.4289 25.555 29.1087 26.5052 28.5594 27.2476C28.1692 27.7749 27.697 28.2386 27.1599 28.6217C26.4038 29.1611 25.4361 29.4755 23.8913 29.6398C22.3256 29.8064 20.3037 29.8079 17.4884 29.8079H14.5116C11.6963 29.8079 9.67441 29.8064 8.10872 29.6398C6.56392 29.4755 5.59616 29.1611 4.84006 28.6217C4.30305 28.2386 3.8308 27.7749 3.44064 27.2476C2.8913 26.5052 2.57109 25.555 2.40372 24.0382C2.23409 22.5009 2.23256 20.5156 2.23256 17.7513V10.4222C2.23256 7.81124 4.38821 5.69464 7.04734 5.69464C8.77333 5.69464 10.4393 5.07271 11.7293 3.94679L12.0505 3.66652Z" fill="white"/>
<path d="M23.4419 10.4443C23.4419 11.2514 24.1082 11.9057 24.9302 11.9057C25.7522 11.9057 26.4186 11.2514 26.4186 10.4443C26.4186 9.63718 25.7522 8.98288 24.9302 8.98288C24.1082 8.98288 23.4419 9.63718 23.4419 10.4443Z" fill="white"/>
</svg>
