<svg width="35" height="35" viewBox="0 0 35 35" fill="none" xmlns="http://www.w3.org/2000/svg">
<path d="M6.38017 30.625L4.3385 28.5833L19.2864 13.6354C18.8489 12.6146 18.7882 11.4601 19.1041 10.1719C19.4201 8.88368 20.1128 7.72917 21.1823 6.70833C22.4704 5.42014 23.9045 4.66667 25.4843 4.44792C27.0642 4.22917 28.3524 4.61806 29.3489 5.61458C30.3454 6.61111 30.7343 7.89931 30.5156 9.47917C30.2968 11.059 29.5434 12.4931 28.2552 13.7812C27.2343 14.8507 26.0798 15.5434 24.7916 15.8594C23.5034 16.1753 22.3489 16.1146 21.3281 15.6771L19.5052 17.5L30.5885 28.5833L28.5468 30.625L17.4635 19.6146L6.38017 30.625ZM10.6823 18.1562L6.30725 13.7812C4.99475 12.4688 4.3385 10.901 4.3385 9.07812C4.3385 7.25521 4.99475 5.6875 6.30725 4.375L15.3489 13.4896L10.6823 18.1562Z" fill="white"/>
</svg>
