<svg width="35" height="35" viewBox="0 0 35 35" fill="none" xmlns="http://www.w3.org/2000/svg">
<path d="M17.4854 2.91699C9.43538 2.91699 2.91663 9.45033 2.91663 17.5003C2.91663 25.5503 9.43538 32.0837 17.4854 32.0837C25.55 32.0837 32.0833 25.5503 32.0833 17.5003C32.0833 9.45033 25.55 2.91699 17.4854 2.91699ZM17.5 29.167C11.0541 29.167 5.83329 23.9462 5.83329 17.5003C5.83329 11.0545 11.0541 5.83366 17.5 5.83366C23.9458 5.83366 29.1666 11.0545 29.1666 17.5003C29.1666 23.9462 23.9458 29.167 17.5 29.167ZM18.2291 10.2087H16.0416V18.9587L23.6979 23.5524L24.7916 21.7587L18.2291 17.8649V10.2087Z" fill="white"/>
</svg>
